<svg width="122" height="122" viewBox="0 0 122 122" fill="none" xmlns="http://www.w3.org/2000/svg">
<path d="M3.71094 35.9023V16.2607C3.71094 10.6683 6.84814 3.71187 16.2598 3.71187H35.6286" stroke="black" stroke-width="6"/>
<path d="M118.289 35.9023V16.2607C118.289 10.6683 115.151 3.71187 105.74 3.71187H86.3711" stroke="black" stroke-width="6"/>
<path d="M118.289 86.0977V105.74C118.289 111.332 115.151 118.288 105.74 118.288H86.3711" stroke="black" stroke-width="6"/>
<path d="M3.71094 86.0977V105.74C3.71094 111.332 6.84814 118.288 16.2598 118.288H35.6286" stroke="black" stroke-width="6"/>
<path d="M53.6228 56.6054C49.3136 55.9199 41.8709 65.388 38.5655 71.2232C38.3209 71.6556 38.2958 72.6796 38.4807 73.5832C38.7317 74.8075 38.6982 75.6644 38.6982 77.0993C38.4807 79.3368 38.6982 79.4593 38.9328 80.0715C39.3897 81.2636 40.6875 80.9283 41.5034 80.5611C42.6868 79.7127 44.5394 77.0074 42.4827 72.9713C40.4263 68.9349 46.2776 63.8628 49.4607 61.8312C56.4383 59.1381 58.2746 61.43 60.478 66.1158C62.6817 70.802 56.4383 79.949 53.6228 80.9283C51.3703 81.7119 51.705 81.0099 52.1538 80.5611C58.3971 77.6231 59.7437 71.8694 57.0505 65.259C54.3572 58.6485 45.5432 65.3815 49.2157 66.483C52.8881 67.5849 55.5815 72.3592 54.7246 75.6644C54.0391 78.3087 53.2963 77.7227 53.0106 77.0993C53.1331 74.0047 46.8898 71.2232 45.9104 70.7676C44.9311 70.3123 42.6052 71.2232 44.5639 73.216C46.5226 75.2088 45.6657 77.6231 44.0742 79.3368C42.8011 80.7079 43.5439 81.2956 44.0742 81.418C47.2571 81.5405 47.7467 81.8158 49.8279 83.7439C51.9091 85.672 51.7866 85.4577 53.99 84.3561C55.7528 83.4747 54.7246 85.0495 53.99 85.9473C53.2556 87.1717 51.4928 89.2771 50.3176 87.906C49.1424 86.5349 44.2783 83.7439 41.9931 82.5196C41.5034 81.8344 40.2793 81.418 40.0347 81.2955C39.7897 81.1731 39.3 81.418 39.3 81.418C39.3 81.418 38.6878 81.6628 38.5655 81.8158C38.443 81.9686 38.4742 82.0604 38.4742 82.0604L38.819 85.507C39.0487 90.5623 40.8915 89.7082 41.014 88.9738C41.0811 88.5694 40.8775 88.121 40.8915 87.627C40.8977 87.3973 40.8915 87.1373 41.014 86.8926C41.2587 86.6476 41.7484 87.015 41.9931 87.1373C43.6201 87.9508 45.8862 89.6885 47.7467 91.4219C48.0383 91.6936 48.2364 92.034 48.7261 92.279C53.6228 93.8702 55.707 90.1782 56.8055 87.2598C56.928 86.8926 57.3653 85.9132 57.5402 85.6685C58.7643 83.9545 61.1636 80.4289 62.4367 77.0993C64.0282 72.9369 64.259 67.5541 63.1714 63.4607C61.5103 57.2111 56.724 56.1973 53.6228 56.6054Z" fill="#333333"/>
<path d="M57.4301 53.8539V25.2112C57.4301 23.1306 59.1165 21.444 61.1971 21.444C63.2778 21.444 64.9645 23.1306 64.9645 25.2112V58.1751C64.9684 58.2089 65.1877 60.0583 66.0238 60.0583C66.8678 60.0583 66.9658 58.1746 66.9658 58.1746L67.0836 30.6266C67.0836 28.546 68.7701 26.8594 70.8507 26.8594C72.9314 26.8594 74.6181 28.546 74.6181 30.6266V60.0583C74.6225 60.0687 74.9897 60.8821 75.442 60.8821C75.8973 60.8821 76.2661 60.0583 76.2661 60.0583V38.8674C76.2661 36.7867 77.9528 35.1003 80.0335 35.1003C82.1141 35.1003 83.8006 36.7867 83.8006 38.8674V88.3125C83.8006 95.0744 78.3189 100.557 71.5571 100.557H50.8372C44.0754 100.557 38.5938 95.0744 38.5938 88.3125C38.5938 87.1373 38.7304 86.6026 38.818 85.507L39.1824 88.195L39.2021 88.2007C39.5829 91.0329 41.4821 93.1534 43.1844 94.4787C44.9364 95.8426 47.0876 96.847 48.9227 97.1529L49.2373 97.2053L49.5556 97.1951C53.8754 97.058 56.604 95.003 58.2181 92.6097C59.4245 90.8209 60.0536 88.6417 60.2825 87.8501C60.3198 87.7203 60.3465 87.6278 60.3632 87.5803C60.3624 87.5828 60.3627 87.5825 60.3643 87.5795C60.3651 87.5779 60.3665 87.5754 60.3684 87.5719C60.3943 87.5222 60.5181 87.2849 60.8707 86.7788C61.1614 86.3614 61.4972 85.9133 61.8909 85.3884L61.892 85.387C62.0185 85.2182 62.1509 85.0414 62.29 84.855C63.3195 83.4742 64.7403 81.5351 65.481 79.5827C66.19 77.7134 66.8106 74.5527 66.9729 71.245C67.1341 67.9591 66.8731 63.9991 65.4054 60.745C63.9909 57.6085 61.8046 55.2295 58.8271 54.2149C58.3646 54.0575 57.8985 53.938 57.4301 53.8539Z" fill="#333333"/>
<path d="M55.5462 53.7017V28.9783C55.5462 26.8978 53.8595 25.2112 51.7788 25.2112C49.6985 25.2112 48.0117 26.8977 48.0117 28.9783V56.3962C48.6454 55.9142 49.287 55.4984 49.9262 55.179C51.7264 54.2788 53.6357 53.7274 55.5462 53.7017Z" fill="#333333"/>
<path d="M46.1282 58.0273V56.2909C46.1282 54.2103 44.4418 52.5238 42.3611 52.5238C40.2804 52.5238 38.5938 54.2103 38.5938 56.2909V67.5167C39.6945 65.831 41.1817 63.7163 42.8044 61.7109C43.7916 60.4909 44.9255 59.1869 46.1282 58.0273Z" fill="#333333"/>
<path d="M39.5352 92.9038C39.8885 93.257 40.2417 93.2701 40.694 93.3749C41.1834 93.4881 41.783 93.5015 42.15 93.4881C42.214 93.5287 42.4364 93.7045 42.8131 94.0812C42.8742 94.1423 42.965 94.2192 43.0799 94.3079C43.8489 94.9028 45.689 96.026 46.8159 96.4357C48.1109 96.9066 48.5818 97.142 50.583 97.0244C52.5845 96.9066 55.8808 95.4937 57.5291 93.481C59.1771 91.468 60.3545 87.6062 60.3545 87.4884C60.3545 87.3943 60.5299 87.1354 60.6174 87.0176C76.3837 82.5439 83.782 77.5483 83.782 56.5263V88.4303C84.0174 91.962 80.8388 100.085 71.7739 100.438H50.583C50.5146 100.438 47.645 100.438 44.9508 98.9912C44.5858 98.7944 44.2238 98.5721 43.8726 98.3194C43.3574 97.9896 42.9242 97.5752 42.4784 97.142C41.9186 96.5977 41.3495 95.9929 40.694 95.1407C40.3492 94.614 39.8025 93.5664 39.5352 92.9038Z" fill="#595959"/>
</svg>
