<svg width="122" height="122" viewBox="0 0 122 122" fill="none" xmlns="http://www.w3.org/2000/svg">
<g clip-path="url(#clip0_444:2624)">
<path d="M2.76562 35.488V15.5221C2.76562 9.83737 5.95492 2.76611 15.5228 2.76611H35.2132" stroke="black" stroke-width="5.54609"/>
<path d="M119.248 35.488V15.5221C119.248 9.83737 116.059 2.76611 106.491 2.76611H86.8008" stroke="black" stroke-width="5.54609"/>
<path d="M119.248 86.512V106.478C119.248 112.163 116.059 119.234 106.491 119.234H86.8008" stroke="black" stroke-width="5.54609"/>
<path d="M2.76562 86.512V106.478C2.76562 112.163 5.95492 119.234 15.5228 119.234H35.2132" stroke="black" stroke-width="5.54609"/>
<g clip-path="url(#clip1_444:2624)">
<path fill-rule="evenodd" clip-rule="evenodd" d="M60.9302 88.4427L29.4102 33.8484H92.4502L60.9302 88.4427ZM60.9302 73.5931L42.2703 41.2733H79.59L60.9302 73.5931Z" fill="#333333"/>
<path d="M32.9017 33.8484C32.9017 35.7781 31.3373 37.3425 29.4076 37.3425C27.4779 37.3425 25.9136 35.7781 25.9136 33.8484C25.9136 31.9187 27.4779 30.3544 29.4076 30.3544C31.3373 30.3544 32.9017 31.9187 32.9017 33.8484Z" fill="#595959"/>
<path fill-rule="evenodd" clip-rule="evenodd" d="M29.4076 39.1623C32.3424 39.1623 34.7215 36.7832 34.7215 33.8484C34.7215 30.9137 32.3424 28.5346 29.4076 28.5346C26.4729 28.5346 24.0938 30.9137 24.0938 33.8484C24.0938 36.7832 26.4729 39.1623 29.4076 39.1623ZM29.4076 42.9475C34.4329 42.9475 38.5067 38.8737 38.5067 33.8484C38.5067 28.8232 34.4329 24.7494 29.4076 24.7494C24.3824 24.7494 20.3086 28.8232 20.3086 33.8484C20.3086 38.8737 24.3824 42.9475 29.4076 42.9475Z" fill="#595959"/>
<path d="M95.9407 33.8484C95.9407 35.7781 94.3764 37.3425 92.4467 37.3425C90.517 37.3425 88.9527 35.7781 88.9527 33.8484C88.9527 31.9187 90.517 30.3544 92.4467 30.3544C94.3764 30.3544 95.9407 31.9187 95.9407 33.8484Z" fill="#595959"/>
<path fill-rule="evenodd" clip-rule="evenodd" d="M92.4467 39.1623C95.3815 39.1623 97.7605 36.7832 97.7605 33.8484C97.7605 30.9137 95.3815 28.5346 92.4467 28.5346C89.5119 28.5346 87.1329 30.9137 87.1329 33.8484C87.1329 36.7832 89.5119 39.1623 92.4467 39.1623ZM92.4467 42.9475C97.472 42.9475 101.546 38.8737 101.546 33.8484C101.546 28.8232 97.472 24.7494 92.4467 24.7494C87.4214 24.7494 83.3477 28.8232 83.3477 33.8484C83.3477 38.8737 87.4214 42.9475 92.4467 42.9475Z" fill="#595959"/>
<path d="M64.4212 88.4427C64.4212 90.3724 62.8569 91.9367 60.9272 91.9367C58.9975 91.9367 57.4331 90.3724 57.4331 88.4427C57.4331 86.513 58.9975 84.9487 60.9272 84.9487C62.8569 84.9487 64.4212 86.513 64.4212 88.4427Z" fill="#595959"/>
<path fill-rule="evenodd" clip-rule="evenodd" d="M60.9272 93.7565C63.8619 93.7565 66.241 91.3775 66.241 88.4427C66.241 85.5079 63.8619 83.1289 60.9272 83.1289C57.9924 83.1289 55.6133 85.5079 55.6133 88.4427C55.6133 91.3775 57.9924 93.7565 60.9272 93.7565ZM60.9272 97.5417C65.9524 97.5417 70.0262 93.468 70.0262 88.4427C70.0262 83.4174 65.9524 79.3437 60.9272 79.3437C55.9019 79.3437 51.8281 83.4174 51.8281 88.4427C51.8281 93.468 55.9019 97.5417 60.9272 97.5417Z" fill="#595959"/>
</g>
</g>
<defs>
<clipPath id="clip0_444:2624">
<rect width="122" height="122" fill="white"/>
</clipPath>
<clipPath id="clip1_444:2624">
<rect width="81.2363" height="72.7924" fill="white" transform="translate(20.3086 24.7494)"/>
</clipPath>
</defs>
</svg>
