<svg width="122" height="123" viewBox="0 0 122 123" fill="none" xmlns="http://www.w3.org/2000/svg">
<path d="M3.04688 35.6871V15.7687C3.04688 10.0975 6.23551 3.04309 15.8014 3.04309H35.4878" stroke="black" stroke-width="5.54545"/>
<path d="M118.949 35.6871V15.7687C118.949 10.0975 115.76 3.04309 106.194 3.04309H86.5078" stroke="black" stroke-width="5.54545"/>
<path d="M118.949 86.5896V106.508C118.949 112.179 115.76 119.234 106.194 119.234H86.5078" stroke="black" stroke-width="5.54545"/>
<path d="M3.04688 86.5896V106.508C3.04688 112.179 6.23551 119.234 15.8014 119.234H35.4878" stroke="black" stroke-width="5.54545"/>
<g clip-path="url(#clip0_431:2600)">
<g clip-path="url(#clip1_431:2600)">
<path fill-rule="evenodd" clip-rule="evenodd" d="M54.5543 67.2847C69.312 67.2847 81.2754 55.3212 81.2754 40.5635C81.2754 39.7758 81.2413 38.996 81.1746 38.2256C77.3345 31.8033 70.3121 27.5032 62.2854 27.5032C50.1393 27.5032 40.293 37.3495 40.293 49.4956C40.293 52.9269 42.0482 58.7566 44.5669 65.3557C47.6523 66.5998 51.0233 67.2847 54.5543 67.2847ZM62.2854 55.8756C66.5552 55.8756 70.0165 52.4143 70.0165 48.1445C70.0165 43.8747 66.5552 40.4134 62.2854 40.4134C58.0156 40.4134 54.5543 43.8747 54.5543 48.1445C54.5543 52.4143 58.0156 55.8756 62.2854 55.8756ZM62.2854 57.6771C67.5501 57.6771 71.8179 53.4092 71.8179 48.1445C71.8179 42.8798 67.5501 38.612 62.2854 38.612C57.0207 38.612 52.7528 42.8798 52.7528 48.1445C52.7528 53.4092 57.0207 57.6771 62.2854 57.6771ZM62.2857 30.5225L59.6685 37.5953C55.7767 38.5783 52.7061 41.6384 51.7255 45.5316L44.6642 48.1445L51.6955 50.7463C52.6344 54.7462 55.7456 57.8895 59.7317 58.8645L62.2854 65.7657L64.8258 58.8998C68.8995 57.9633 72.1057 54.7566 73.0414 50.6826L79.9068 48.1446L73.0012 45.5893C72.0209 41.612 68.8693 38.4887 64.8753 37.5508L62.2857 30.5225ZM62.2851 31.3893L64.6498 37.8072L64.7293 37.8252C68.6754 38.7207 71.7902 41.8073 72.7282 45.7372L72.7468 45.8153L79.0412 48.1445L72.784 50.4576L72.7663 50.5375C71.8738 54.5623 68.7053 57.7315 64.6807 58.6248L64.6009 58.6425L62.2854 64.9005L59.9576 58.6098L59.8793 58.5912C55.9409 57.6586 52.8668 54.5528 51.9699 50.6004L51.9519 50.5211L45.5293 48.1445L51.979 45.7579L51.998 45.6804C52.9367 41.8338 55.9713 38.8092 59.8175 37.8677L59.8949 37.8487L62.2851 31.3893ZM62.2854 32.0818L60.2588 37.7863C60.6641 37.7263 62.079 37.6299 62.3604 37.6268L62.2854 32.0818ZM64.312 58.6425L62.2854 64.2072L62.2103 58.6622C62.4918 58.6591 63.9067 58.7026 64.312 58.6425ZM78.3481 48.1445L72.7282 46.1179C72.7882 46.5232 72.8 47.9381 72.8031 48.2196L78.3481 48.1445ZM51.9272 50.1711L46.2227 48.1445L51.7677 48.0695C51.7708 48.3509 51.8671 49.7658 51.9272 50.1711Z" fill="#333333"/>
<path fill-rule="evenodd" clip-rule="evenodd" d="M62.2844 103.839C62.2844 103.839 84.2768 61.6416 84.2768 49.4956C84.2768 45.3762 83.1442 41.5214 81.1735 38.2255C81.2403 38.996 81.2744 39.7757 81.2744 40.5635C81.2744 55.3212 69.3109 67.2846 54.5532 67.2846C51.0223 67.2846 47.6513 66.5998 44.5658 65.3556C44.5595 65.3391 44.5532 65.3225 44.5469 65.3059C50.9403 82.0727 62.2844 103.839 62.2844 103.839Z" fill="#595959"/>
</g>
<path d="M63.5277 18.1075H64.3528V22.3998L60.6694 17.8521H59.2452V18.1075H60.031V23.4901H59.2452V23.7455H61.2588C61.2588 23.6014 61.2064 23.5196 61.1016 23.4999C61.0689 23.4934 61.0361 23.4901 61.0034 23.4901H60.4239V19.0308L64.2742 23.7946L64.7457 23.6964V18.1075H65.5314V17.8521H63.5277V18.1075Z" fill="black"/>
<path d="M92.2906 46.8113L92.2415 45.0237H87.6349V45.279H88.4206V50.6616H87.6349V50.917H92.2415L92.2906 49.1293H92.0745L91.9173 49.6303C91.7471 50.1934 91.4852 50.5241 91.1316 50.6223C91.0399 50.6485 90.9449 50.6616 90.8467 50.6616H89.3636V48.0194H91.3673V47.7346H89.3636V45.279H90.8467C91.3509 45.279 91.7045 45.6097 91.9075 46.2711C91.9141 46.2842 91.9173 46.2973 91.9173 46.3104L92.0745 46.8113H92.2906Z" fill="black"/>
<path d="M34.9673 50.9182L36.9023 45.2802H37.3934V45.0248H35.7924V45.2802H36.5782L35.0656 49.8279L33.494 45.2802H34.2896V45.0248H32.4921L33.1699 46.9205L32.1582 49.8377L30.5179 45.2802H31.3135V45.0248H29.0543V45.2802H29.6142L31.4412 50.2994C31.5787 50.6726 31.6998 50.8821 31.8046 50.928C31.8504 50.9476 31.8995 50.9574 31.9519 50.9574H32.06L33.3368 47.3723L34.3878 50.2994C34.5122 50.6464 34.617 50.8428 34.7021 50.8887C34.748 50.9083 34.8036 50.9182 34.8691 50.9182H34.9673Z" fill="black"/>
<path d="M63.0591 76.2519C63.0591 75.6756 62.7448 75.2074 62.1162 74.8473C62.0114 74.7818 61.6382 74.605 60.9964 74.3169C60.4202 74.0615 60.0568 73.7996 59.9062 73.5311C59.8341 73.387 59.7981 73.2364 59.7981 73.0793C59.7981 72.6602 60.0011 72.3688 60.4071 72.2051C60.5839 72.1331 60.7771 72.0971 60.9866 72.0971C61.5301 72.0971 61.9426 72.2837 62.2242 72.6569C62.4207 72.9123 62.5156 73.2266 62.5091 73.5999H62.8234V71.8711C62.6531 71.8711 62.5582 71.9268 62.5385 72.0381C62.5254 72.084 62.5189 72.1396 62.5189 72.2051C62.0343 71.9497 61.5006 71.822 60.9179 71.822C60.2041 71.822 59.6475 72.0185 59.2481 72.4114C58.9796 72.6798 58.8454 73.0007 58.8454 73.3739C58.8454 73.924 59.1499 74.3725 59.7588 74.7196C59.8701 74.7851 60.2434 74.9619 60.8786 75.25C61.4614 75.5119 61.8313 75.7804 61.9885 76.0554C62.0671 76.1995 62.1063 76.3566 62.1063 76.5269C62.1063 76.9853 61.8903 77.3127 61.4581 77.5091C61.2551 77.5942 61.0324 77.6368 60.7902 77.6368C59.8407 77.6368 59.2906 77.09 59.14 75.9965C59.1335 75.9245 59.1269 75.8557 59.1204 75.7902H58.8061V77.8332C58.9632 77.8332 59.0582 77.7874 59.0909 77.6957C59.104 77.6368 59.1106 77.5419 59.1106 77.4109C59.6148 77.7448 60.1943 77.9118 60.8491 77.9118C61.6087 77.9118 62.198 77.7088 62.6171 77.3028C62.9118 77.0082 63.0591 76.6578 63.0591 76.2519Z" fill="black"/>
</g>
<defs>
<clipPath id="clip0_431:2600">
<rect width="63.7727" height="86.2318" fill="white" transform="translate(29.1133 17.7455)"/>
</clipPath>
<clipPath id="clip1_431:2600">
<rect width="43.9848" height="76.3355" fill="white" transform="translate(40.293 27.5032)"/>
</clipPath>
</defs>
</svg>
