<svg width="139" height="149" viewBox="0 0 139 149" fill="none" xmlns="http://www.w3.org/2000/svg">
<path d="M64.1432 76.4733L61.0361 67.7203H57.7795V79.7888H60.2718V76.4899L60.0226 70.8037L63.2792 79.7888H64.9906L68.2556 70.7955L68.0064 76.4899V79.7888H70.507V67.7203H67.2337L64.1432 76.4733Z" fill="black"/>
<path fill-rule="evenodd" clip-rule="evenodd" d="M72.5135 67.7203V79.7888H77.2157C78.5893 79.7778 79.6471 79.4738 80.3893 78.877C81.1315 78.2803 81.5026 77.4016 81.5026 76.2412C81.5026 75.5615 81.3226 74.9868 80.9625 74.5171C80.6081 74.0474 80.1207 73.7352 79.5004 73.5805C80.0432 73.3705 80.4668 73.0417 80.7715 72.5941C81.0761 72.141 81.2284 71.6188 81.2284 71.0275C81.2284 69.9445 80.849 69.1239 80.0902 68.5658C79.3314 68.0021 78.2182 67.7203 76.7505 67.7203H72.5135ZM75.0059 77.7912V74.5337H77.2905C78.437 74.5503 79.0102 75.1112 79.0102 76.2163C79.0102 76.7081 78.8441 77.095 78.5117 77.3768C78.185 77.6531 77.728 77.7912 77.141 77.7912H75.0059ZM76.8502 72.7765H75.0059V69.7345H76.7505C77.4373 69.7345 77.9385 69.8561 78.2542 70.0992C78.5754 70.3368 78.7361 70.7291 78.7361 71.2762C78.7361 72.2543 78.1074 72.7544 76.8502 72.7765Z" fill="black"/>
<path fill-rule="evenodd" clip-rule="evenodd" d="M29.5152 51.2929V36.0952H16.9309C16.0651 32.2881 12.6526 29.4461 8.57484 29.4461C3.84265 29.4461 0.00645887 33.2735 0.00645887 37.9949C0.00645887 42.7163 3.84265 46.5437 8.57484 46.5437C12.6526 46.5437 16.0651 43.7017 16.9309 39.8946H25.707V55.0923H36.1795V72.1899H24.5426C23.6768 68.3829 20.2643 65.5408 16.1866 65.5408C11.4544 65.5408 7.6182 69.3683 7.6182 74.0896C7.6182 78.811 11.4544 82.6384 16.1866 82.6384C20.2643 82.6384 23.6768 79.7964 24.5426 75.9894H36.1795V93.087H25.707V108.287L16.9235 108.297C16.0562 104.492 12.6447 101.652 8.56838 101.652C3.83619 101.652 0 105.48 0 110.201C0 114.922 3.83619 118.75 8.56838 118.75C12.6476 118.75 16.061 115.906 16.9254 112.097L29.5152 112.082V96.8864H36.1795V112.084H51.4121V118.733H36.1795V131.293C32.3637 132.157 29.5152 135.562 29.5152 139.63C29.5152 144.352 33.3514 148.179 38.0836 148.179C42.8157 148.179 46.6519 144.352 46.6519 139.63C46.6519 135.562 43.8034 132.157 39.9876 131.293V122.532H55.2203V112.084H67.5969V123.695C63.7811 124.558 60.9326 127.963 60.9326 132.032C60.9326 136.753 64.7688 140.58 69.501 140.58C74.2332 140.58 78.0694 136.753 78.0694 132.032C78.0694 127.963 75.2208 124.558 71.4051 123.695V112.084H83.7816V122.532H99.0143V131.293C95.1985 132.157 92.35 135.562 92.35 139.63C92.35 144.352 96.1862 148.179 100.918 148.179C105.651 148.179 109.487 144.352 109.487 139.63C109.487 135.562 106.638 132.157 102.822 131.293V118.733H87.5898V112.084H102.822V96.8864H109.487V112.084H122.076C122.941 115.892 126.354 118.734 130.432 118.734C135.164 118.734 139 114.906 139 110.185C139 105.463 135.164 101.636 130.432 101.636C126.354 101.636 122.941 104.478 122.076 108.285H113.295V93.087H102.822V75.9894H114.459C115.325 79.7964 118.738 82.6384 122.815 82.6384C127.548 82.6384 131.384 78.8109 131.384 74.0896C131.384 69.3683 127.548 65.5408 122.815 65.5408C118.738 65.5408 115.325 68.3829 114.459 72.1899H102.822V55.0922L113.295 55.0919V39.8947L122.076 39.8946C122.941 43.7017 126.354 46.5437 130.432 46.5437C135.164 46.5437 139 42.7162 139 37.9949C139 33.2735 135.164 29.4461 130.432 29.4461C126.354 29.4461 122.941 32.2881 122.076 36.0952L109.487 36.0952V51.2925L102.822 51.2927V36.095H87.5898V29.4456L102.822 29.4462V16.8858C106.638 16.022 109.487 12.6173 109.487 8.54887C109.487 3.82751 105.651 7.32743e-05 100.918 7.32743e-05C96.1862 7.32743e-05 92.35 3.8275 92.35 8.54887C92.35 12.6173 95.1985 16.022 99.0143 16.8858V25.6466L83.7816 25.646V36.095H71.4051V24.4848C75.2208 23.6209 78.0694 20.2163 78.0694 16.1478C78.0694 11.4264 74.2332 7.59901 69.501 7.59901C64.7688 7.59901 60.9326 11.4264 60.9326 16.1478C60.9326 20.2162 63.7811 23.6209 67.5969 24.4848V36.095H55.2203V24.6966H40.0004L40.0528 16.8912C43.8807 16.0362 46.7412 12.6258 46.7412 8.5488C46.7412 3.82743 42.905 0 38.1728 0C33.4407 0 29.6045 3.82742 29.6045 8.5488C29.6045 12.6087 32.441 16.0076 36.2447 16.8803L36.1667 28.4961H51.4121V36.095H36.1795V51.2929H29.5152ZM99.0143 108.285H39.9876V39.8945H99.0143V108.285ZM8.56838 105.452C11.1937 105.452 13.3226 107.572 13.3286 110.19L13.3286 110.201C13.3286 112.824 11.1974 114.95 8.56838 114.95C5.93939 114.95 3.80817 112.824 3.80817 110.201C3.80817 107.578 5.93939 105.452 8.56838 105.452ZM42.9331 8.5488C42.9331 11.1718 40.8018 13.2981 38.1728 13.2981C38.1511 13.2981 38.1294 13.298 38.1077 13.2977C35.5088 13.2629 33.4126 11.1501 33.4126 8.5488C33.4126 5.92581 35.5438 3.79947 38.1728 3.79947C40.8018 3.79947 42.9331 5.92581 42.9331 8.5488ZM96.1582 8.54887C96.1582 11.1719 98.2894 13.2982 100.918 13.2982C103.547 13.2982 105.679 11.1719 105.679 8.54887C105.679 5.92589 103.547 3.79954 100.918 3.79954C98.2894 3.79954 96.1582 5.92589 96.1582 8.54887ZM13.3351 37.9949C13.3351 40.6179 11.2038 42.7442 8.57484 42.7442C5.94585 42.7442 3.81463 40.6179 3.81463 37.9949C3.81463 35.3719 5.94585 33.2456 8.57484 33.2456C11.2038 33.2456 13.3351 35.3719 13.3351 37.9949ZM20.9468 74.0896C20.9468 71.4667 18.8156 69.3403 16.1866 69.3403C13.5576 69.3403 11.4264 71.4667 11.4264 74.0896C11.4264 76.7126 13.5576 78.839 16.1866 78.839C18.8156 78.839 20.9468 76.7126 20.9468 74.0896ZM38.0836 134.881C40.7125 134.881 42.8438 137.007 42.8438 139.63C42.8438 142.253 40.7125 144.38 38.0836 144.38C35.4546 144.38 33.3233 142.253 33.3233 139.63C33.3233 137.007 35.4546 134.881 38.0836 134.881ZM74.2612 132.032C74.2612 129.409 72.13 127.282 69.501 127.282C66.872 127.282 64.7408 129.409 64.7408 132.032C64.7408 134.654 66.872 136.781 69.501 136.781C72.13 136.781 74.2612 134.654 74.2612 132.032ZM100.918 134.881C98.2894 134.881 96.1582 137.007 96.1582 139.63C96.1582 142.253 98.2894 144.38 100.918 144.38C103.547 144.38 105.679 142.253 105.679 139.63C105.679 137.007 103.547 134.881 100.918 134.881ZM130.432 105.435C127.803 105.435 125.671 107.562 125.671 110.185C125.671 112.808 127.803 114.934 130.432 114.934C133.061 114.934 135.192 112.808 135.192 110.185C135.192 107.562 133.061 105.435 130.432 105.435ZM125.671 37.9949C125.671 40.6179 127.803 42.7442 130.432 42.7442C133.061 42.7442 135.192 40.6179 135.192 37.9949C135.192 35.3719 133.061 33.2456 130.432 33.2456C127.803 33.2456 125.671 35.3719 125.671 37.9949ZM69.501 20.8971C72.13 20.8971 74.2612 18.7708 74.2612 16.1478C74.2612 13.5248 72.13 11.3985 69.501 11.3985C66.872 11.3985 64.7408 13.5248 64.7408 16.1478C64.7408 18.7708 66.872 20.8971 69.501 20.8971ZM122.815 69.3403C120.186 69.3403 118.055 71.4667 118.055 74.0896C118.055 76.7126 120.186 78.839 122.815 78.839C125.444 78.839 127.576 76.7126 127.576 74.0896C127.576 71.4667 125.444 69.3403 122.815 69.3403Z" fill="black"/>
</svg>
