<svg width="122" height="122" viewBox="0 0 122 122" fill="none" xmlns="http://www.w3.org/2000/svg">
<g clip-path="url(#clip0_441:2382)">
<path d="M2.76562 35.4892V15.5241C2.76562 9.83963 5.95434 2.76868 15.5205 2.76868H35.2074" stroke="black" stroke-width="5.54584"/>
<path d="M119.227 35.4892V15.5241C119.227 9.83963 116.038 2.76868 106.472 2.76868H86.7852" stroke="black" stroke-width="5.54584"/>
<path d="M119.227 86.5109V106.476C119.227 112.16 116.038 119.231 106.472 119.231H86.7852" stroke="black" stroke-width="5.54584"/>
<path d="M2.76562 86.5109V106.476C2.76562 112.16 5.95434 119.231 15.5205 119.231H35.2074" stroke="black" stroke-width="5.54584"/>
<g clip-path="url(#clip1_441:2382)">
<path fill-rule="evenodd" clip-rule="evenodd" d="M98.307 23.4943C92.9312 18.0895 84.1919 18.066 78.787 23.4417L78.0312 22.6818C83.8557 16.8887 93.2737 16.9141 99.0669 22.7385C104.86 28.563 104.835 37.981 99.0101 43.7742L98.2543 43.0143C103.659 37.6385 103.683 28.8992 98.307 23.4943Z" fill="black"/>
<path fill-rule="evenodd" clip-rule="evenodd" d="M92.7905 29.6366C90.59 27.4521 87.0491 27.4582 84.8817 29.6414L84.1211 28.8863C86.7095 26.2791 90.929 26.2784 93.5456 28.876C96.1622 31.4737 96.1923 35.6931 93.6039 38.3003L92.8433 37.5453C95.0107 35.362 94.991 31.8212 92.7905 29.6366Z" fill="black"/>
<path fill-rule="evenodd" clip-rule="evenodd" d="M95.4908 26.8723C91.824 23.2146 85.8863 23.222 82.2286 26.8888L81.4699 26.1319C85.5455 22.046 92.1618 22.0378 96.2476 26.1135C100.334 30.1892 100.342 36.8054 96.2661 40.8913L95.5073 40.1344C99.165 36.4676 99.1576 30.5299 95.4908 26.8723Z" fill="black"/>
<path fill-rule="evenodd" clip-rule="evenodd" d="M88.6898 35.0103C88.6898 34.1225 87.97 33.4027 87.0821 33.4027H34.924C34.0362 33.4027 33.3164 34.1225 33.3164 35.0103V87.1684C33.3164 88.0563 34.0362 88.7761 34.924 88.7761H87.0821C87.97 88.7761 88.6898 88.0563 88.6898 87.1685V35.0103ZM61.0031 75.4686C68.9445 75.4686 75.3823 69.0308 75.3823 61.0894C75.3823 53.148 68.9445 46.7102 61.0031 46.7102C53.0617 46.7102 46.6239 53.148 46.6239 61.0894C46.6239 69.0308 53.0617 75.4686 61.0031 75.4686Z" fill="#333333"/>
<path d="M74.3192 55.653C74.1628 55.2703 74.138 54.8446 74.2657 54.4514C75.6285 50.2559 76.3647 45.778 76.3647 41.1282C76.3647 39.1528 76.2318 37.2085 75.9745 35.3036C75.8403 34.3102 76.5965 33.4027 77.5989 33.4027H87.0821C87.97 33.4027 88.6898 34.1225 88.6898 35.0103V87.1684C88.6898 88.0563 87.97 88.7761 87.0821 88.7761H34.924C34.0362 88.7761 33.3164 88.0563 33.3164 87.1684V85.8271C33.3164 84.9399 34.0358 84.2235 34.9224 84.1901C43.8898 83.8524 52.156 80.7746 58.9077 75.7698C59.2397 75.5237 59.6509 75.4118 60.0632 75.4384C60.3739 75.4584 60.6873 75.4686 61.0031 75.4686C68.9445 75.4686 75.3823 69.0308 75.3823 61.0894C75.3823 59.1656 75.0046 57.3301 74.3192 55.653Z" fill="#595959"/>
<path fill-rule="evenodd" clip-rule="evenodd" d="M23.7093 98.6496C29.085 104.054 37.8244 104.078 43.2292 98.7022L43.985 99.4621C38.1605 105.255 28.7426 105.23 22.9494 99.4054C17.1562 93.5809 17.1816 84.1629 23.0061 78.3698L23.7619 79.1296C18.3571 84.5054 18.3335 93.2447 23.7093 98.6496Z" fill="black"/>
<path fill-rule="evenodd" clip-rule="evenodd" d="M29.2257 92.5073C31.4263 94.6918 34.9672 94.6857 37.1346 92.5025L37.8952 93.2575C35.3068 95.8648 31.0873 95.8655 28.4707 93.2679C25.8541 90.6702 25.824 86.4508 28.4123 83.8435L29.1729 84.5986C27.0055 86.7819 27.0252 90.3227 29.2257 92.5073Z" fill="black"/>
<path fill-rule="evenodd" clip-rule="evenodd" d="M26.5255 95.2716C30.1923 98.9293 36.13 98.9219 39.7876 95.2551L40.5464 96.012C36.4707 100.098 29.8545 100.106 25.7686 96.0304C21.6827 91.9547 21.6745 85.3385 25.7502 81.2526L26.509 82.0095C22.8513 85.6763 22.8587 91.614 26.5255 95.2716Z" fill="black"/>
</g>
</g>
<defs>
<clipPath id="clip0_441:2382">
<rect width="122" height="122" fill="white"/>
</clipPath>
<clipPath id="clip1_441:2382">
<rect width="84.757" height="85.4715" fill="white" transform="translate(18.6641 18.309)"/>
</clipPath>
</defs>
</svg>
