<svg width="122" height="122" viewBox="0 0 122 122" fill="none" xmlns="http://www.w3.org/2000/svg">
<path d="M2.77734 35.5256V15.5709C2.77734 9.88941 5.96483 2.82214 15.5273 2.82214H35.2066" stroke="black" stroke-width="5.54295"/>
<path d="M119.195 35.5256V15.5709C119.195 9.88941 116.007 2.82214 106.445 2.82214H86.7656" stroke="black" stroke-width="5.54295"/>
<path d="M119.195 86.5208V106.475C119.195 112.157 116.007 119.224 106.445 119.224H86.7656" stroke="black" stroke-width="5.54295"/>
<path d="M2.77734 86.5208V106.475C2.77734 112.157 5.96483 119.224 15.5273 119.224H35.2066" stroke="black" stroke-width="5.54295"/>
<g clip-path="url(#clip0_452:2809)">
<path d="M44.6687 91.9184H57.4146L67.9396 91.9157C71.7025 91.669 79.2143 90.0513 79.1588 85.5543V78.6378C78.9352 76.5713 77.6509 72.6997 69.2122 72.6997C68.2406 72.6303 66.5548 71.8832 65.927 71.2506C63.8917 69.1998 62.3419 66.3314 63.9145 61.8205C64.4621 59.9854 65.3398 56.0259 66.6908 55.0266C67.0455 55.0651 68.4211 54.8901 68.8652 53.7242C69.3093 52.5584 69.2816 50.7247 69.2122 49.9537C69.1119 49.8149 68.8236 49.5373 68.472 49.5373C67.9399 49.5373 68.2175 48.9867 68.2175 46.1368C68.1789 44.186 68.0926 40.1779 68.0556 39.7523C68.0093 39.2202 67.5929 31.8642 59.7742 30.3606C59.1579 30.276 57.7796 30.1391 56.3296 30.1183H56.2808C54.8308 30.1391 53.4504 30.2786 52.8341 30.3632C45.0154 31.8668 44.599 39.2229 44.5527 39.7549C44.5157 40.1806 44.4294 44.1886 44.3908 46.1394C44.3908 48.9894 44.6684 49.5399 44.1364 49.5399C43.7848 49.5399 43.4964 49.8175 43.3961 49.9563C43.3267 50.7274 43.299 52.561 43.7431 53.7269C44.1873 54.8927 45.5629 55.0677 45.9176 55.0292C47.2685 56.0285 48.1462 59.988 48.6938 61.8232C50.2664 66.334 48.7166 69.2024 46.6813 71.2532C46.0535 71.8858 44.3677 72.6329 43.3961 72.7023C34.9574 72.7023 33.6731 76.5739 33.4495 78.6404V85.557C33.394 90.0539 40.9059 91.6716 44.6687 91.9184Z" fill="black" stroke="black" stroke-width="0.0462647"/>
<path d="M34.9297 88.6874C51.1845 82.1346 62.6408 66.355 62.6408 47.9302C62.6408 41.6464 61.3083 35.6702 58.9072 30.2628C59.2657 30.297 59.5633 30.3318 59.7728 30.3606C67.4218 31.8316 67.9863 38.9036 68.0506 39.7082C68.052 39.726 68.0532 39.7408 68.0542 39.7523C68.0912 40.178 68.1775 44.186 68.2161 46.1369C68.2161 47.0581 68.1871 47.7391 68.1658 48.2389C68.1212 49.2852 68.1105 49.5373 68.4705 49.5373C68.8222 49.5373 69.1105 49.8149 69.2108 49.9537C69.2802 50.7248 69.3079 52.5584 68.8638 53.7243C68.4197 54.8901 67.044 55.0652 66.6894 55.0266C65.5616 55.8608 64.7636 58.7581 64.2122 60.7601C64.103 61.1563 64.0036 61.5174 63.9131 61.8206C62.3405 66.3314 63.8903 69.1998 65.9256 71.2507C66.5534 71.8832 68.2392 72.6303 69.2108 72.6997C77.6495 72.6997 78.9338 76.5713 79.1574 78.6378V85.5544C79.2129 90.0513 71.7011 91.669 67.9382 91.9158L44.6673 91.9184C41.9568 91.7407 37.3011 90.8516 34.9297 88.6874Z" fill="#333333"/>
<path d="M79.2521 46.0335V51.0763H83.8323V46.0335H88.4588V41.4533H83.8323V37.2894H79.2521V41.4533H74.6719V46.0335H79.2521Z" fill="#333333"/>
</g>
<defs>
<clipPath id="clip0_452:2809">
<rect width="55.0087" height="61.8001" fill="white" transform="translate(33.4492 30.1183)"/>
</clipPath>
</defs>
</svg>
