<svg width="122" height="122" viewBox="0 0 122 122" fill="none" xmlns="http://www.w3.org/2000/svg">
<g clip-path="url(#clip0_444:2483)">
<path d="M2.68359 35.4891V15.5242C2.68359 9.83972 5.87463 2.7688 15.4478 2.7688H35.149" stroke="black" stroke-width="5.54582"/>
<path d="M119.231 35.4891V15.5242C119.231 9.83972 116.04 2.7688 106.467 2.7688H86.7656" stroke="black" stroke-width="5.54582"/>
<path d="M119.231 86.5106V106.476C119.231 112.16 116.04 119.231 106.467 119.231H86.7656" stroke="black" stroke-width="5.54582"/>
<path d="M2.68359 86.5106V106.476C2.68359 112.16 5.87463 119.231 15.4478 119.231H35.149" stroke="black" stroke-width="5.54582"/>
<g clip-path="url(#clip1_444:2483)">
<path fill-rule="evenodd" clip-rule="evenodd" d="M63.4025 37.6737C52.9052 38.7655 45.3206 47.6548 45.3206 58.4423C45.3206 69.9695 54.6652 79.3141 66.1924 79.3141C77.7195 79.3141 87.0641 69.9695 87.0641 58.4423C87.0641 47.6548 79.4796 38.7655 68.9823 37.6737V31.7583C82.4831 33.1624 93.0215 44.5715 93.0215 58.4423C93.0215 73.2596 81.0097 85.2714 66.1924 85.2714C51.3751 85.2714 39.3633 73.2596 39.3633 58.4423C39.3633 44.5715 49.9017 33.1624 63.4025 31.7583V37.6737Z" fill="#333333"/>
<path fill-rule="evenodd" clip-rule="evenodd" d="M38.5414 88.2651C44.1939 93.6746 52.8626 93.6931 58.9681 88.5128C65.4922 82.9774 66.2994 73.2079 60.771 66.692C55.2426 60.1762 45.472 59.3814 38.9479 64.9168C32.8424 70.0971 31.4488 78.6531 35.8654 85.1111L32.5174 87.9517C26.8371 79.646 28.2401 68.2103 36.0908 61.5494C44.477 54.434 57.0363 55.4556 64.1427 63.8312C71.2491 72.2069 70.2116 84.7649 61.8253 91.8803C53.9746 98.5412 42.4631 98.063 35.1934 91.1058L38.5414 88.2651Z" fill="#333333"/>
<circle cx="66.2114" cy="58.5248" r="13.2153" fill="#333333"/>
<path fill-rule="evenodd" clip-rule="evenodd" d="M59.6222 53.0853L60.1645 53.0858C60.566 52.4615 61.0333 51.8774 61.5545 51.3625C60.8257 51.8357 60.174 52.4175 59.6222 53.0853ZM66.1882 49.2531C63.0311 49.2531 60.2429 50.8311 58.574 53.2443C57.542 54.7366 56.9375 56.5487 56.9375 58.5037C56.9375 60.4561 57.5403 62.266 58.5698 63.7571C60.2383 66.1738 63.0285 67.7544 66.1882 67.7544C69.344 67.7544 72.1311 66.1777 73.8003 63.7662C74.8336 62.2733 75.4389 60.4601 75.4389 58.5037C75.4389 56.5513 74.836 54.7415 73.8065 53.2503C72.1381 50.8337 69.3479 49.2531 66.1882 49.2531ZM65.0476 50.1342C63.5079 50.5108 62.1056 51.6194 61.0583 53.0865L62.8034 53.0878C63.3875 51.9952 64.1501 51.0019 65.0476 50.1342ZM62.4411 53.8291L60.5772 53.8276C59.7853 55.1723 59.2969 56.6999 59.2271 58.133L61.4624 58.133C61.5082 56.6034 61.8515 55.154 62.4411 53.8291ZM62.2028 58.133C62.252 56.593 62.6234 55.1422 63.2567 53.8297L65.8049 53.8318V58.133H62.2028ZM61.4636 58.8745H59.229C59.3057 60.3047 59.7969 61.8309 60.5888 63.1754H62.4543C61.8626 61.8476 61.5145 60.397 61.4636 58.8745ZM63.2704 63.1754C62.6348 61.8588 62.2588 60.4059 62.2041 58.8745H65.8049V63.1754H63.2704ZM62.8168 63.917L61.0698 63.917C62.1174 65.386 63.5168 66.4963 65.0522 66.8733C64.1605 66.0062 63.4006 65.0106 62.8168 63.917ZM61.5934 65.67C61.0613 65.1477 60.5847 64.553 60.1758 63.917H59.6179C60.1804 64.5988 60.847 65.1912 61.5934 65.67ZM59.0708 63.1754H59.7392C59.0119 61.8236 58.5582 60.3158 58.4879 58.8745H57.6855C57.7532 60.4609 58.2533 61.9322 59.0708 63.1754ZM57.6855 58.133H58.4862C58.5501 56.6886 59.001 55.1793 59.7281 53.8269L59.0745 53.8264C58.2548 55.0709 57.7533 56.5442 57.6855 58.133ZM70.7079 65.7177C71.4821 65.2323 72.1725 64.6257 72.7525 63.9241L72.1552 63.9229C71.7384 64.5759 71.2521 65.1854 70.7079 65.7177ZM72.5883 63.1822L73.3002 63.1837C74.1208 61.9387 74.6231 60.4644 74.6909 58.8745L73.8259 58.8745C73.7595 60.3185 73.3112 61.8287 72.5883 63.1822ZM73.085 58.8745C73.0125 60.3075 72.5274 61.8355 71.7412 63.1805L69.8998 63.1766C70.4914 61.8498 70.8384 60.3995 70.8869 58.8745H73.085ZM73.8259 58.133L74.6909 58.133C74.6232 56.5466 74.123 55.0753 73.3056 53.832L72.592 53.832C73.3127 55.1838 73.7596 56.6914 73.8259 58.133ZM71.7442 53.832C72.5286 55.1758 73.0126 56.7017 73.085 58.133H70.887C70.8389 56.6067 70.4946 55.1575 69.9054 53.832L71.7442 53.832ZM72.159 53.0905C71.7414 52.4352 71.2537 51.8236 70.7079 51.2898C71.4847 51.7768 72.1772 52.3859 72.7584 53.0905L72.159 53.0905ZM71.2677 53.0905L69.5436 53.0905C68.9623 51.9983 68.2153 51.0035 67.3249 50.1346C68.853 50.5119 70.2309 51.621 71.2677 53.0905ZM65.8154 50.4294C64.9593 51.2104 64.2256 52.1051 63.6512 53.0885L65.8062 53.0902L65.8154 50.4294ZM66.5554 50.4263L66.5463 53.0905L68.6968 53.0905C68.1253 52.1031 67.4052 51.2065 66.5554 50.4263ZM69.0896 53.832L66.545 53.832V58.133L70.1465 58.133C70.0948 56.5965 69.7226 55.1454 69.0896 53.832ZM70.1464 58.8745L66.545 58.8745V63.1754H69.0842C69.7195 61.8603 70.0943 60.4084 70.1464 58.8745ZM68.6908 63.917H66.5463L66.5554 66.5791C67.4008 65.7996 68.1194 64.9034 68.6908 63.917ZM65.8154 66.5753C64.9675 65.7967 64.2379 64.9011 63.6645 63.917H65.8062L65.8154 66.5753ZM67.3206 66.8739C68.849 66.498 70.2274 65.3898 71.2648 63.921L69.5375 63.9174C68.9554 65.0096 68.2086 66.005 67.3206 66.8739Z" fill="white"/>
<circle cx="31.3275" cy="58.8815" r="3.33528" fill="#333333"/>
<circle cx="48.9922" cy="76.6691" r="7.82428" fill="#595959"/>
<path d="M55.8663 72.9289L46.0942 83.9391C43.2077 82.7875 41.168 79.9665 41.168 76.6691C41.168 72.3479 44.671 68.8448 48.9922 68.8448C51.9587 68.8448 54.5396 70.4957 55.8663 72.9289Z" fill="#333333"/>
<path fill-rule="evenodd" clip-rule="evenodd" d="M66.2135 22.2353C62.2978 22.2353 59.1235 25.4096 59.1235 29.3254H53.25C53.25 22.1658 59.054 16.3618 66.2135 16.3618C73.3731 16.3618 79.1771 22.1658 79.1771 29.3254H73.3036C73.3036 25.4096 70.1293 22.2353 66.2135 22.2353Z" fill="#333333"/>
<path d="M68.9077 100.407C69.2981 100.953 69.5279 101.622 69.5279 102.345C69.5279 104.187 68.0346 105.68 66.1926 105.68C64.3505 105.68 62.8573 104.187 62.8573 102.345C62.8573 101.619 63.0892 100.947 63.483 100.4C57.6346 99.1457 53.25 93.9469 53.25 87.7241H59.1235C59.1235 91.6398 62.2978 94.8142 66.2135 94.8142C70.1293 94.8142 73.3036 91.6398 73.3036 87.7241H79.1771C79.1771 93.9598 74.7743 99.1673 68.9077 100.407Z" fill="#333333"/>
<path fill-rule="evenodd" clip-rule="evenodd" d="M27.4272 94.6791C29.5538 97.2135 33.289 97.5373 35.7651 95.4596L38.5697 98.8019C34.2198 102.452 27.7369 101.836 24.0849 97.4837C20.4328 93.1313 20.952 86.64 25.3019 82.99L28.1065 86.3324C25.6304 88.4101 25.3006 92.1447 27.4272 94.6791Z" fill="#333333"/>
<circle cx="101.054" cy="58.8815" r="3.33528" fill="#333333"/>
</g>
</g>
<defs>
<clipPath id="clip0_444:2483">
<rect width="122" height="122" fill="white"/>
</clipPath>
<clipPath id="clip1_444:2483">
<rect width="86.9271" height="89.3184" fill="white" transform="translate(17.4492 16.3618)"/>
</clipPath>
</defs>
</svg>
