<svg width="122" height="122" viewBox="0 0 122 122" fill="none" xmlns="http://www.w3.org/2000/svg">
<g clip-path="url(#clip0_452:3035)">
<path d="M2.76953 35.4891V15.524C2.76953 9.83952 5.95869 2.76855 15.5262 2.76855H35.2158" stroke="black" stroke-width="5.54586"/>
<path d="M119.247 35.4891V15.524C119.247 9.83952 116.058 2.76855 106.49 2.76855H86.8008" stroke="black" stroke-width="5.54586"/>
<path d="M119.247 86.511V106.476C119.247 112.161 116.058 119.232 106.49 119.232H86.8008" stroke="black" stroke-width="5.54586"/>
<path d="M2.76953 86.511V106.476C2.76953 112.161 5.95869 119.232 15.5262 119.232H35.2158" stroke="black" stroke-width="5.54586"/>
<g clip-path="url(#clip1_452:3035)">
<rect x="36.543" y="28.0544" width="48.9107" height="65.8911" fill="#333333"/>
<path d="M36.543 85.5507C56.3913 84.1996 72.0725 67.6712 72.0725 47.4803C72.0725 40.3865 70.1367 33.7447 66.7647 28.0544H85.4537V93.9455H36.543V85.5507Z" fill="#595959"/>
<path fill-rule="evenodd" clip-rule="evenodd" d="M40.4219 42.1741C40.4219 40.9508 41.4135 39.9592 42.6367 39.9592H79.2736C80.4968 39.9592 81.4884 40.9508 81.4884 42.1741C81.4884 43.3973 80.4968 44.3889 79.2736 44.3889H42.6367C41.4135 44.3889 40.4219 43.3973 40.4219 42.1741Z" fill="#D0D0CF"/>
<path fill-rule="evenodd" clip-rule="evenodd" d="M40.4219 60.0771C40.4219 58.8539 41.4135 57.8623 42.6367 57.8623H79.2736C80.4968 57.8623 81.4884 58.8539 81.4884 60.0771C81.4884 61.3003 80.4968 62.292 79.2736 62.292H42.6367C41.4135 62.292 40.4219 61.3003 40.4219 60.0771Z" fill="#D0D0CF"/>
<path fill-rule="evenodd" clip-rule="evenodd" d="M40.4219 77.9805C40.4219 76.7572 41.4135 75.7656 42.6367 75.7656H79.2736C80.4968 75.7656 81.4884 76.7572 81.4884 77.9805C81.4884 79.2037 80.4968 80.1953 79.2736 80.1953H42.6367C41.4135 80.1953 40.4219 79.2037 40.4219 77.9805Z" fill="#D0D0CF"/>
<path fill-rule="evenodd" clip-rule="evenodd" d="M40.4219 51.1255C40.4219 49.9023 41.4135 48.9106 42.6367 48.9106H79.2736C80.4968 48.9106 81.4884 49.9023 81.4884 51.1255C81.4884 52.3487 80.4968 53.3403 79.2736 53.3403H42.6367C41.4135 53.3403 40.4219 52.3487 40.4219 51.1255Z" fill="#D0D0CF"/>
<path fill-rule="evenodd" clip-rule="evenodd" d="M40.4219 69.0288C40.4219 67.8056 41.4135 66.814 42.6367 66.814H79.2736C80.4968 66.814 81.4884 67.8056 81.4884 69.0288C81.4884 70.252 80.4968 71.2436 79.2736 71.2436H42.6367C41.4135 71.2436 40.4219 70.252 40.4219 69.0288Z" fill="#D0D0CF"/>
<path fill-rule="evenodd" clip-rule="evenodd" d="M40.4219 35.0681C40.4219 33.8449 41.4135 32.8533 42.6367 32.8533H61.0013C62.2245 32.8533 63.2161 33.8449 63.2161 35.0681C63.2161 36.2913 62.2245 37.2829 61.0013 37.2829H42.6367C41.4135 37.2829 40.4219 36.2913 40.4219 35.0681Z" fill="#D0D0CF"/>
<path fill-rule="evenodd" clip-rule="evenodd" d="M58.7852 86.9319C58.7852 85.7087 59.7768 84.717 61 84.717H79.3646C80.5878 84.717 81.5794 85.7087 81.5794 86.9319C81.5794 88.1551 80.5878 89.1467 79.3646 89.1467H61C59.7768 89.1467 58.7852 88.1551 58.7852 86.9319Z" fill="#D0D0CF"/>
</g>
</g>
<defs>
<clipPath id="clip0_452:3035">
<rect width="122" height="122" fill="white"/>
</clipPath>
<clipPath id="clip1_452:3035">
<rect width="48.9107" height="65.8911" fill="white" transform="translate(36.543 28.0546)"/>
</clipPath>
</defs>
</svg>
