<svg width="587" height="537" viewBox="0 0 587 537" fill="none" xmlns="http://www.w3.org/2000/svg">
<path fill-rule="evenodd" clip-rule="evenodd" d="M183.61 134.035L148.96 20.3786C145.279 8.30696 134.151 0 121.458 0H0V38.3571H114.341L206.065 339.22C209.756 351.326 220.926 359.598 233.583 359.598H506.263C518.894 359.598 530.046 351.359 533.759 339.29C533.764 339.273 533.77 339.255 533.775 339.237L585.118 171.21C590.767 152.722 576.937 134.035 557.605 134.035H183.61ZM195.304 172.392H544.648L499.166 321.241H240.684L195.304 172.392ZM273.295 498.643C289.183 498.643 302.062 485.763 302.062 469.875C302.062 453.987 289.183 441.107 273.295 441.107C257.407 441.107 244.527 453.987 244.527 469.875C244.527 485.763 257.407 498.643 273.295 498.643ZM465.08 498.643C480.968 498.643 493.848 485.763 493.848 469.875C493.848 453.987 480.968 441.107 465.08 441.107C449.192 441.107 436.312 453.987 436.312 469.875C436.312 485.763 449.192 498.643 465.08 498.643ZM340.42 469.875C340.42 506.947 310.367 537 273.295 537C236.223 537 206.17 506.947 206.17 469.875C206.17 432.803 236.223 402.75 273.295 402.75C310.367 402.75 340.42 432.803 340.42 469.875ZM465.08 537C502.152 537 532.205 506.947 532.205 469.875C532.205 432.803 502.152 402.75 465.08 402.75C428.008 402.75 397.955 432.803 397.955 469.875C397.955 506.947 428.008 537 465.08 537Z" fill="black"/>
</svg>
