<svg width="123" height="122" viewBox="0 0 123 122" fill="none" xmlns="http://www.w3.org/2000/svg">
<g clip-path="url(#clip0_452:2968)">
<path d="M2.76953 35.4899V15.5255C2.76953 9.84122 5.95857 2.77051 15.5257 2.77051H35.2146" stroke="black" stroke-width="5.54566"/>
<path d="M119.246 35.4899V15.5255C119.246 9.84122 116.057 2.77051 106.49 2.77051H86.8008" stroke="black" stroke-width="5.54566"/>
<path d="M119.246 86.51V106.474C119.246 112.159 116.057 119.229 106.49 119.229H86.8008" stroke="black" stroke-width="5.54566"/>
<path d="M2.76953 86.51V106.474C2.76953 112.159 5.95857 119.229 15.5257 119.229H35.2146" stroke="black" stroke-width="5.54566"/>
<g clip-path="url(#clip1_452:2968)">
<rect x="29.1836" y="24.1506" width="63.6321" height="57.9523" rx="4.61771" fill="#333333"/>
<path d="M29.1836 77.4852V74.0433L87.6877 24.1506H88.198C90.7482 24.1506 92.8157 26.2181 92.8157 28.7683V77.4852C92.8157 80.0355 90.7482 82.1029 88.198 82.1029H76.0072L59.8914 97.7108L64.9247 82.1029H33.8013C31.2511 82.1029 29.1836 80.0355 29.1836 77.4852Z" fill="#595959"/>
</g>
</g>
<defs>
<clipPath id="clip0_452:2968">
<rect width="122.046" height="122" fill="white"/>
</clipPath>
<clipPath id="clip1_452:2968">
<rect width="63.6321" height="73.5602" fill="white" transform="translate(29.1836 24.1506)"/>
</clipPath>
</defs>
</svg>
