<svg width="122" height="122" viewBox="0 0 122 122" fill="none" xmlns="http://www.w3.org/2000/svg">
<g clip-path="url(#clip0_452:2732)">
<path d="M2.78125 35.4941V15.5329C2.78125 9.84953 5.96978 2.77995 15.5354 2.77995H35.2211" stroke="black" stroke-width="5.54477"/>
<path d="M119.237 35.4941V15.5329C119.237 9.84953 116.048 2.77995 106.483 2.77995H86.7969" stroke="black" stroke-width="5.54477"/>
<path d="M119.237 86.5059V106.467C119.237 112.15 116.048 119.22 106.483 119.22H86.7969" stroke="black" stroke-width="5.54477"/>
<path d="M2.78125 86.5059V106.467C2.78125 112.15 5.96978 119.22 15.5354 119.22H35.2211" stroke="black" stroke-width="5.54477"/>
<g clip-path="url(#clip1_452:2732)">
<path d="M48.7682 75.6221L61.0535 90.1497L73.3112 75.6221C63.0192 64.8198 52.6609 71.1211 48.7682 75.6221Z" fill="#595959"/>
<path d="M31.8989 55.7433L25.7344 48.4775C36.9336 35.5706 66.7346 17.5009 96.345 48.4775L90.1101 55.8428C80.7422 48.1204 69.6973 42.0566 61.0397 42.0566C48.4505 42.0566 39.4694 49.5972 31.8989 55.7433Z" fill="#595959"/>
<path d="M42.9701 68.7838L37.6882 62.5488C45.0703 54.0858 64.9128 42.2377 84.431 62.5488L79.1491 68.7838C72.974 63.7203 66.7862 60.4837 61.0794 60.4837C52.781 60.4837 47.9603 64.7539 42.9701 68.7838Z" fill="#595959"/>
<path d="M73.18 64.4978C73.6826 62.0336 73.9466 59.4825 73.9466 56.8698C73.9466 56.0629 73.9215 55.2618 73.8718 54.4674C58.135 46.4176 43.7336 55.6183 37.6882 62.5488L42.9701 68.7839C43.2223 68.5801 43.4742 68.3757 43.7262 68.1714C48.4567 64.333 53.2006 60.4837 61.0794 60.4837C64.9434 60.4837 69.028 61.9676 73.18 64.4978Z" fill="#333333"/>
<path d="M70.3687 72.9805C61.1011 66.0059 52.2894 71.5506 48.7682 75.6221L58.6606 87.3201C63.6518 83.5965 67.6964 78.6745 70.3687 72.9805Z" fill="#333333"/>
<path d="M64.2084 31.4801C67.5788 35.2249 70.2148 39.6438 71.8893 44.51C68.073 42.9587 64.3788 42.0566 61.0397 42.0566C48.7419 42.0566 39.887 49.2523 32.4264 55.3146L31.899 55.7433L25.7344 48.4775C32.7702 40.3687 47.1484 30.2222 64.2084 31.4801Z" fill="#333333"/>
</g>
</g>
<defs>
<clipPath id="clip0_452:2732">
<rect width="122" height="122" fill="white"/>
</clipPath>
<clipPath id="clip1_452:2732">
<rect width="70.6107" height="58.776" fill="white" transform="translate(25.7344 31.3737)"/>
</clipPath>
</defs>
</svg>
